<?xml version="1.0" encoding="UTF-8" standalone="no"?>
<!DOCTYPE svg PUBLIC "-//W3C//DTD SVG 1.1//EN"
 "http://www.w3.org/Graphics/SVG/1.1/DTD/svg11.dtd">
<!-- Generated by graphviz version 2.44.1 (20200629.0846)
 -->
<!-- Title: main Pages: 1 -->
<svg width="360pt" height="122pt"
 viewBox="0.00 0.00 360.00 122.00" xmlns="http://www.w3.org/2000/svg" xmlns:xlink="http://www.w3.org/1999/xlink">
<g id="graph0" class="graph" transform="scale(1 1) rotate(0) translate(4 118)">
<title>main</title>
<polygon fill="white" stroke="transparent" points="-4,4 -4,-118 356,-118 356,4 -4,4"/>
<!-- Node1 -->
<g id="node1" class="node">
<title>Node1</title>
<g id="a_node1"><a xlink:title=" ">
<polygon fill="#bfbfbf" stroke="black" points="0,-47.5 0,-66.5 38,-66.5 38,-47.5 0,-47.5"/>
<text text-anchor="middle" x="19" y="-54.5" font-family="Helvetica,sans-Serif" font-size="10.00">main</text>
</a>
</g>
</g>
<!-- Node2 -->
<g id="node2" class="node">
<title>Node2</title>
<g id="a_node2"><a xlink:href="../../df/dce/namespacegraph.html#a535880c6cc8adc001d20a126928b1121" target="_top" xlink:title="Function that add edge between two nodes or vertices of graph.">
<polygon fill="white" stroke="black" points="149,-94.5 149,-113.5 234,-113.5 234,-94.5 149,-94.5"/>
<text text-anchor="middle" x="191.5" y="-101.5" font-family="Helvetica,sans-Serif" font-size="10.00">graph::addEdge</text>
</a>
</g>
</g>
<!-- Node1&#45;&gt;Node2 -->
<g id="edge1" class="edge">
<title>Node1&#45;&gt;Node2</title>
<path fill="none" stroke="midnightblue" d="M30.19,-66.75C40.38,-75.83 56.96,-88.87 74,-95 94.41,-102.34 118.1,-105.12 138.76,-105.86"/>
<polygon fill="midnightblue" stroke="midnightblue" points="138.88,-109.37 148.95,-106.08 139.02,-102.37 138.88,-109.37"/>
</g>
<!-- Node4 -->
<g id="node4" class="node">
<title>Node4</title>
<g id="a_node4"><a xlink:href="../../df/dce/namespacegraph.html#a09c8bd26358ed719bdfebe5fc22e2b3d" target="_top" xlink:title="Function runs the dijkstra algorithm for some source vertex and target vertex in the graph and return...">
<polygon fill="white" stroke="black" points="148,-47.5 148,-66.5 235,-66.5 235,-47.5 148,-47.5"/>
<text text-anchor="middle" x="191.5" y="-54.5" font-family="Helvetica,sans-Serif" font-size="10.00">graph::Bidijkstra</text>
</a>
</g>
</g>
<!-- Node1&#45;&gt;Node4 -->
<g id="edge3" class="edge">
<title>Node1&#45;&gt;Node4</title>
<path fill="none" stroke="midnightblue" d="M38.25,-57C61.76,-57 103.64,-57 137.53,-57"/>
<polygon fill="midnightblue" stroke="midnightblue" points="137.76,-60.5 147.76,-57 137.76,-53.5 137.76,-60.5"/>
</g>
<!-- Node5 -->
<g id="node5" class="node">
<title>Node5</title>
<g id="a_node5"><a target="_blank" xlink:href="http://en.cppreference.com/w/cpp/io/manip/endl.html#" target="_top" xlink:title=" ">
<polygon fill="white" stroke="black" points="164.5,-0.5 164.5,-19.5 218.5,-19.5 218.5,-0.5 164.5,-0.5"/>
<text text-anchor="middle" x="191.5" y="-7.5" font-family="Helvetica,sans-Serif" font-size="10.00">std::endl</text>
</a>
</g>
</g>
<!-- Node1&#45;&gt;Node5 -->
<g id="edge4" class="edge">
<title>Node1&#45;&gt;Node5</title>
<path fill="none" stroke="midnightblue" d="M38.25,-51.97C65.85,-44.36 118.76,-29.78 154.35,-19.96"/>
<polygon fill="midnightblue" stroke="midnightblue" points="155.63,-23.24 164.34,-17.21 153.77,-16.49 155.63,-23.24"/>
</g>
<!-- Node6 -->
<g id="node6" class="node">
<title>Node6</title>
<g id="a_node6"><a xlink:href="../../d7/d07/bidirectional__dijkstra_8cpp.html#a88ec9ad42717780d6caaff9d3d6977f9" target="_top" xlink:title=" ">
<polygon fill="white" stroke="black" points="74,-66.5 74,-85.5 112,-85.5 112,-66.5 74,-66.5"/>
<text text-anchor="middle" x="93" y="-73.5" font-family="Helvetica,sans-Serif" font-size="10.00">tests</text>
</a>
</g>
</g>
<!-- Node1&#45;&gt;Node6 -->
<g id="edge5" class="edge">
<title>Node1&#45;&gt;Node6</title>
<path fill="none" stroke="midnightblue" d="M38.17,-61.79C45.95,-63.85 55.23,-66.3 63.87,-68.58"/>
<polygon fill="midnightblue" stroke="midnightblue" points="63.02,-71.97 73.59,-71.14 64.81,-65.21 63.02,-71.97"/>
</g>
<!-- Node3 -->
<g id="node3" class="node">
<title>Node3</title>
<g id="a_node3"><a target="_blank" xlink:href="http://en.cppreference.com/w/cpp/utility/pair/make_pair.html#" target="_top" xlink:title=" ">
<polygon fill="white" stroke="black" points="271,-94.5 271,-113.5 352,-113.5 352,-94.5 271,-94.5"/>
<text text-anchor="middle" x="311.5" y="-101.5" font-family="Helvetica,sans-Serif" font-size="10.00">std::make_pair</text>
</a>
</g>
</g>
<!-- Node2&#45;&gt;Node3 -->
<g id="edge2" class="edge">
<title>Node2&#45;&gt;Node3</title>
<path fill="none" stroke="midnightblue" d="M234.1,-104C242.69,-104 251.81,-104 260.65,-104"/>
<polygon fill="midnightblue" stroke="midnightblue" points="260.86,-107.5 270.86,-104 260.86,-100.5 260.86,-107.5"/>
</g>
<!-- Node6&#45;&gt;Node2 -->
<g id="edge6" class="edge">
<title>Node6&#45;&gt;Node2</title>
<path fill="none" stroke="midnightblue" d="M112.15,-81.27C122.23,-84.19 135.23,-87.96 147.73,-91.59"/>
<polygon fill="midnightblue" stroke="midnightblue" points="147.01,-95.02 157.59,-94.45 148.96,-88.3 147.01,-95.02"/>
</g>
<!-- Node6&#45;&gt;Node4 -->
<g id="edge7" class="edge">
<title>Node6&#45;&gt;Node4</title>
<path fill="none" stroke="midnightblue" d="M112.15,-72.43C119.53,-70.97 128.47,-69.21 137.63,-67.41"/>
<polygon fill="midnightblue" stroke="midnightblue" points="138.47,-70.81 147.6,-65.45 137.12,-63.94 138.47,-70.81"/>
</g>
<!-- Node6&#45;&gt;Node5 -->
<g id="edge8" class="edge">
<title>Node6&#45;&gt;Node5</title>
<path fill="none" stroke="midnightblue" d="M107.68,-66.2C118.55,-58.46 134.17,-47.42 148,-38 154.08,-33.86 160.71,-29.44 166.88,-25.38"/>
<polygon fill="midnightblue" stroke="midnightblue" points="169.04,-28.15 175.48,-19.74 165.2,-22.3 169.04,-28.15"/>
</g>
</g>
</svg>
