<?xml version="1.0" encoding="UTF-8" standalone="no"?>
<!DOCTYPE svg PUBLIC "-//W3C//DTD SVG 1.1//EN"
 "http://www.w3.org/Graphics/SVG/1.1/DTD/svg11.dtd">
<!-- Generated by graphviz version 2.44.1 (20200629.0846)
 -->
<!-- Title: graph/bidirectional_dijkstra.cpp Pages: 1 -->
<svg width="642pt" height="95pt"
 viewBox="0.00 0.00 642.00 95.00" xmlns="http://www.w3.org/2000/svg" xmlns:xlink="http://www.w3.org/1999/xlink">
<g id="graph0" class="graph" transform="scale(1 1) rotate(0) translate(4 91)">
<title>graph/bidirectional_dijkstra.cpp</title>
<polygon fill="white" stroke="transparent" points="-4,4 -4,-91 638,-91 638,4 -4,4"/>
<!-- Node1 -->
<g id="node1" class="node">
<title>Node1</title>
<g id="a_node1"><a xlink:title="Bidirectional Dijkstra Shortest Path Algorithm">
<polygon fill="#bfbfbf" stroke="black" points="261.5,-56.5 261.5,-86.5 356.5,-86.5 356.5,-56.5 261.5,-56.5"/>
<text text-anchor="start" x="269.5" y="-74.5" font-family="Helvetica,sans-Serif" font-size="10.00">graph/bidirectional</text>
<text text-anchor="middle" x="309" y="-63.5" font-family="Helvetica,sans-Serif" font-size="10.00">_dijkstra.cpp</text>
</a>
</g>
</g>
<!-- Node2 -->
<g id="node2" class="node">
<title>Node2</title>
<g id="a_node2"><a xlink:title=" ">
<polygon fill="white" stroke="#bfbfbf" points="0,-0.5 0,-19.5 44,-19.5 44,-0.5 0,-0.5"/>
<text text-anchor="middle" x="22" y="-7.5" font-family="Helvetica,sans-Serif" font-size="10.00">cmath</text>
</a>
</g>
</g>
<!-- Node1&#45;&gt;Node2 -->
<g id="edge1" class="edge">
<title>Node1&#45;&gt;Node2</title>
<path fill="none" stroke="midnightblue" d="M261.07,-62.34C211.55,-53.63 131.84,-38.79 54.23,-20.14"/>
<polygon fill="midnightblue" stroke="midnightblue" points="54.83,-16.68 44.29,-17.72 53.18,-23.48 54.83,-16.68"/>
</g>
<!-- Node3 -->
<g id="node3" class="node">
<title>Node3</title>
<g id="a_node3"><a xlink:title=" ">
<polygon fill="white" stroke="#bfbfbf" points="62.5,-0.5 62.5,-19.5 111.5,-19.5 111.5,-0.5 62.5,-0.5"/>
<text text-anchor="middle" x="87" y="-7.5" font-family="Helvetica,sans-Serif" font-size="10.00">cassert</text>
</a>
</g>
</g>
<!-- Node1&#45;&gt;Node3 -->
<g id="edge2" class="edge">
<title>Node1&#45;&gt;Node3</title>
<path fill="none" stroke="midnightblue" d="M261.21,-57.8C225.23,-48.23 174.42,-34.67 121.42,-20.38"/>
<polygon fill="midnightblue" stroke="midnightblue" points="122.07,-16.93 111.5,-17.7 120.25,-23.68 122.07,-16.93"/>
</g>
<!-- Node4 -->
<g id="node4" class="node">
<title>Node4</title>
<g id="a_node4"><a xlink:title=" ">
<polygon fill="white" stroke="#bfbfbf" points="129.5,-0.5 129.5,-19.5 172.5,-19.5 172.5,-0.5 129.5,-0.5"/>
<text text-anchor="middle" x="151" y="-7.5" font-family="Helvetica,sans-Serif" font-size="10.00">cstdio</text>
</a>
</g>
</g>
<!-- Node1&#45;&gt;Node4 -->
<g id="edge3" class="edge">
<title>Node1&#45;&gt;Node4</title>
<path fill="none" stroke="midnightblue" d="M271.56,-56.4C244.33,-46.15 207.89,-32.42 182.22,-22.76"/>
<polygon fill="midnightblue" stroke="midnightblue" points="183.21,-19.39 172.62,-19.14 180.74,-25.94 183.21,-19.39"/>
</g>
<!-- Node5 -->
<g id="node5" class="node">
<title>Node5</title>
<g id="a_node5"><a xlink:title=" ">
<polygon fill="white" stroke="#bfbfbf" points="191,-0.5 191,-19.5 245,-19.5 245,-0.5 191,-0.5"/>
<text text-anchor="middle" x="218" y="-7.5" font-family="Helvetica,sans-Serif" font-size="10.00">iostream</text>
</a>
</g>
</g>
<!-- Node1&#45;&gt;Node5 -->
<g id="edge4" class="edge">
<title>Node1&#45;&gt;Node5</title>
<path fill="none" stroke="midnightblue" d="M287.43,-56.4C273.12,-47.04 254.39,-34.79 239.99,-25.38"/>
<polygon fill="midnightblue" stroke="midnightblue" points="241.53,-22.2 231.24,-19.66 237.7,-28.06 241.53,-22.2"/>
</g>
<!-- Node6 -->
<g id="node6" class="node">
<title>Node6</title>
<g id="a_node6"><a xlink:title=" ">
<polygon fill="white" stroke="#bfbfbf" points="263,-0.5 263,-19.5 303,-19.5 303,-0.5 263,-0.5"/>
<text text-anchor="middle" x="283" y="-7.5" font-family="Helvetica,sans-Serif" font-size="10.00">limits</text>
</a>
</g>
</g>
<!-- Node1&#45;&gt;Node6 -->
<g id="edge5" class="edge">
<title>Node1&#45;&gt;Node6</title>
<path fill="none" stroke="midnightblue" d="M302.84,-56.4C299.26,-48.2 294.7,-37.78 290.86,-28.99"/>
<polygon fill="midnightblue" stroke="midnightblue" points="293.99,-27.42 286.78,-19.66 287.58,-30.22 293.99,-27.42"/>
</g>
<!-- Node7 -->
<g id="node7" class="node">
<title>Node7</title>
<g id="a_node7"><a xlink:title=" ">
<polygon fill="white" stroke="#bfbfbf" points="321,-0.5 321,-19.5 351,-19.5 351,-0.5 321,-0.5"/>
<text text-anchor="middle" x="336" y="-7.5" font-family="Helvetica,sans-Serif" font-size="10.00">set</text>
</a>
</g>
</g>
<!-- Node1&#45;&gt;Node7 -->
<g id="edge6" class="edge">
<title>Node1&#45;&gt;Node7</title>
<path fill="none" stroke="midnightblue" d="M315.4,-56.4C319.12,-48.2 323.85,-37.78 327.83,-28.99"/>
<polygon fill="midnightblue" stroke="midnightblue" points="331.13,-30.21 332.07,-19.66 324.75,-27.32 331.13,-30.21"/>
</g>
<!-- Node8 -->
<g id="node8" class="node">
<title>Node8</title>
<g id="a_node8"><a xlink:title=" ">
<polygon fill="white" stroke="#bfbfbf" points="369.5,-0.5 369.5,-19.5 452.5,-19.5 452.5,-0.5 369.5,-0.5"/>
<text text-anchor="middle" x="411" y="-7.5" font-family="Helvetica,sans-Serif" font-size="10.00">unordered_map</text>
</a>
</g>
</g>
<!-- Node1&#45;&gt;Node8 -->
<g id="edge7" class="edge">
<title>Node1&#45;&gt;Node8</title>
<path fill="none" stroke="midnightblue" d="M333.17,-56.4C349.52,-46.86 371.01,-34.32 387.27,-24.84"/>
<polygon fill="midnightblue" stroke="midnightblue" points="389.28,-27.72 396.16,-19.66 385.76,-21.67 389.28,-27.72"/>
</g>
<!-- Node9 -->
<g id="node9" class="node">
<title>Node9</title>
<g id="a_node9"><a xlink:title=" ">
<polygon fill="white" stroke="#bfbfbf" points="470.5,-0.5 470.5,-19.5 513.5,-19.5 513.5,-0.5 470.5,-0.5"/>
<text text-anchor="middle" x="492" y="-7.5" font-family="Helvetica,sans-Serif" font-size="10.00">queue</text>
</a>
</g>
</g>
<!-- Node1&#45;&gt;Node9 -->
<g id="edge8" class="edge">
<title>Node1&#45;&gt;Node9</title>
<path fill="none" stroke="midnightblue" d="M352.37,-56.4C385.46,-45.64 430.29,-31.06 460.13,-21.36"/>
<polygon fill="midnightblue" stroke="midnightblue" points="461.59,-24.57 470.02,-18.15 459.43,-17.91 461.59,-24.57"/>
</g>
<!-- Node10 -->
<g id="node10" class="node">
<title>Node10</title>
<g id="a_node10"><a xlink:title=" ">
<polygon fill="white" stroke="#bfbfbf" points="532,-0.5 532,-19.5 572,-19.5 572,-0.5 532,-0.5"/>
<text text-anchor="middle" x="552" y="-7.5" font-family="Helvetica,sans-Serif" font-size="10.00">utility</text>
</a>
</g>
</g>
<!-- Node1&#45;&gt;Node10 -->
<g id="edge9" class="edge">
<title>Node1&#45;&gt;Node10</title>
<path fill="none" stroke="midnightblue" d="M356.84,-60.21C398.15,-51.09 459.65,-36.99 521.79,-20.19"/>
<polygon fill="midnightblue" stroke="midnightblue" points="523.04,-23.48 531.77,-17.47 521.2,-16.73 523.04,-23.48"/>
</g>
<!-- Node11 -->
<g id="node11" class="node">
<title>Node11</title>
<g id="a_node11"><a xlink:title=" ">
<polygon fill="white" stroke="#bfbfbf" points="590,-0.5 590,-19.5 634,-19.5 634,-0.5 590,-0.5"/>
<text text-anchor="middle" x="612" y="-7.5" font-family="Helvetica,sans-Serif" font-size="10.00">vector</text>
</a>
</g>
</g>
<!-- Node1&#45;&gt;Node11 -->
<g id="edge10" class="edge">
<title>Node1&#45;&gt;Node11</title>
<path fill="none" stroke="midnightblue" d="M356.96,-63.07C409.46,-54.61 496.27,-39.66 579.81,-20.1"/>
<polygon fill="midnightblue" stroke="midnightblue" points="580.79,-23.46 589.72,-17.75 579.18,-16.65 580.79,-23.46"/>
</g>
</g>
</svg>
