<?xml version="1.0" encoding="UTF-8" standalone="no"?>
<!DOCTYPE svg PUBLIC "-//W3C//DTD SVG 1.1//EN"
 "http://www.w3.org/Graphics/SVG/1.1/DTD/svg11.dtd">
<!-- Generated by graphviz version 2.44.1 (20200629.0846)
 -->
<!-- Title: main Pages: 1 -->
<svg width="442pt" height="113pt"
 viewBox="0.00 0.00 442.00 113.00" xmlns="http://www.w3.org/2000/svg" xmlns:xlink="http://www.w3.org/1999/xlink">
<g id="graph0" class="graph" transform="scale(1 1) rotate(0) translate(4 109)">
<title>main</title>
<polygon fill="white" stroke="transparent" points="-4,4 -4,-109 438,-109 438,4 -4,4"/>
<!-- Node1 -->
<g id="node1" class="node">
<title>Node1</title>
<g id="a_node1"><a xlink:title=" ">
<polygon fill="#bfbfbf" stroke="black" points="0,-47.5 0,-66.5 38,-66.5 38,-47.5 0,-47.5"/>
<text text-anchor="middle" x="19" y="-54.5" font-family="Helvetica,sans-Serif" font-size="10.00">main</text>
</a>
</g>
</g>
<!-- Node2 -->
<g id="node2" class="node">
<title>Node2</title>
<g id="a_node2"><a xlink:href="../../df/dce/namespacegraph.html#a535880c6cc8adc001d20a126928b1121" target="_top" xlink:title="Function that add edge between two nodes or vertices of graph.">
<polygon fill="white" stroke="black" points="187,-85.5 187,-104.5 272,-104.5 272,-85.5 187,-85.5"/>
<text text-anchor="middle" x="229.5" y="-92.5" font-family="Helvetica,sans-Serif" font-size="10.00">graph::addEdge</text>
</a>
</g>
</g>
<!-- Node1&#45;&gt;Node2 -->
<g id="edge1" class="edge">
<title>Node1&#45;&gt;Node2</title>
<path fill="none" stroke="midnightblue" d="M29.71,-66.69C39.79,-76 56.51,-89.46 74,-95 107.08,-105.47 146.19,-105.36 176.78,-102.69"/>
<polygon fill="midnightblue" stroke="midnightblue" points="177.2,-106.16 186.8,-101.69 176.51,-99.2 177.2,-106.16"/>
</g>
<!-- Node4 -->
<g id="node4" class="node">
<title>Node4</title>
<g id="a_node4"><a target="_blank" xlink:href="http://en.cppreference.com/w/cpp/io/manip/endl.html#" target="_top" xlink:title=" ">
<polygon fill="white" stroke="black" points="202.5,-47.5 202.5,-66.5 256.5,-66.5 256.5,-47.5 202.5,-47.5"/>
<text text-anchor="middle" x="229.5" y="-54.5" font-family="Helvetica,sans-Serif" font-size="10.00">std::endl</text>
</a>
</g>
</g>
<!-- Node1&#45;&gt;Node4 -->
<g id="edge3" class="edge">
<title>Node1&#45;&gt;Node4</title>
<path fill="none" stroke="midnightblue" d="M38.14,-57C72.35,-57 147.01,-57 191.99,-57"/>
<polygon fill="midnightblue" stroke="midnightblue" points="192.2,-60.5 202.2,-57 192.2,-53.5 192.2,-60.5"/>
</g>
<!-- Node5 -->
<g id="node5" class="node">
<title>Node5</title>
<g id="a_node5"><a xlink:href="../../df/dce/namespacegraph.html#a9fc2ded2807582edf398e6d7c7114914" target="_top" xlink:title="Function that perfoms depth first search algorithm on graph and calculated the number of connected co...">
<polygon fill="white" stroke="black" points="148,-0.5 148,-19.5 311,-19.5 311,-0.5 148,-0.5"/>
<text text-anchor="middle" x="229.5" y="-7.5" font-family="Helvetica,sans-Serif" font-size="10.00">graph::getConnectedComponents</text>
</a>
</g>
</g>
<!-- Node1&#45;&gt;Node5 -->
<g id="edge4" class="edge">
<title>Node1&#45;&gt;Node5</title>
<path fill="none" stroke="midnightblue" d="M38.14,-52.91C68.63,-46.04 131.23,-31.93 176.33,-21.76"/>
<polygon fill="midnightblue" stroke="midnightblue" points="177.26,-25.14 186.25,-19.53 175.72,-18.31 177.26,-25.14"/>
</g>
<!-- Node8 -->
<g id="node8" class="node">
<title>Node8</title>
<g id="a_node8"><a xlink:href="../../df/ddd/connected__components_8cpp.html#a88ec9ad42717780d6caaff9d3d6977f9" target="_top" xlink:title=" ">
<polygon fill="white" stroke="black" points="74,-66.5 74,-85.5 112,-85.5 112,-66.5 74,-66.5"/>
<text text-anchor="middle" x="93" y="-73.5" font-family="Helvetica,sans-Serif" font-size="10.00">tests</text>
</a>
</g>
</g>
<!-- Node1&#45;&gt;Node8 -->
<g id="edge7" class="edge">
<title>Node1&#45;&gt;Node8</title>
<path fill="none" stroke="midnightblue" d="M38.17,-61.79C45.95,-63.85 55.23,-66.3 63.87,-68.58"/>
<polygon fill="midnightblue" stroke="midnightblue" points="63.02,-71.97 73.59,-71.14 64.81,-65.21 63.02,-71.97"/>
</g>
<!-- Node3 -->
<g id="node3" class="node">
<title>Node3</title>
<g id="a_node3"><a target="_blank" xlink:href="http://en.cppreference.com/w/cpp/utility/pair/make_pair.html#" target="_top" xlink:title=" ">
<polygon fill="white" stroke="black" points="350,-85.5 350,-104.5 431,-104.5 431,-85.5 350,-85.5"/>
<text text-anchor="middle" x="390.5" y="-92.5" font-family="Helvetica,sans-Serif" font-size="10.00">std::make_pair</text>
</a>
</g>
</g>
<!-- Node2&#45;&gt;Node3 -->
<g id="edge2" class="edge">
<title>Node2&#45;&gt;Node3</title>
<path fill="none" stroke="midnightblue" d="M272.28,-95C293.01,-95 318.19,-95 339.9,-95"/>
<polygon fill="midnightblue" stroke="midnightblue" points="339.92,-98.5 349.92,-95 339.92,-91.5 339.92,-98.5"/>
</g>
<!-- Node6 -->
<g id="node6" class="node">
<title>Node6</title>
<g id="a_node6"><a xlink:href="../../df/dce/namespacegraph.html#a8e9885e0dd49fcf8262a9868124deac9" target="_top" xlink:title="Utility function for depth first seach algorithm this function explores the vertex which is passed in...">
<polygon fill="white" stroke="black" points="351.5,-0.5 351.5,-19.5 429.5,-19.5 429.5,-0.5 351.5,-0.5"/>
<text text-anchor="middle" x="390.5" y="-7.5" font-family="Helvetica,sans-Serif" font-size="10.00">graph::explore</text>
</a>
</g>
</g>
<!-- Node5&#45;&gt;Node6 -->
<g id="edge5" class="edge">
<title>Node5&#45;&gt;Node6</title>
<path fill="none" stroke="midnightblue" d="M311.4,-10C321.65,-10 331.87,-10 341.38,-10"/>
<polygon fill="midnightblue" stroke="midnightblue" points="341.39,-13.5 351.39,-10 341.39,-6.5 341.39,-13.5"/>
</g>
<!-- Node7 -->
<g id="node7" class="node">
<title>Node7</title>
<g id="a_node7"><a target="_blank" xlink:href="http://en.cppreference.com/w/cpp/container/vector/size.html#" target="_top" xlink:title=" ">
<polygon fill="white" stroke="black" points="347,-38.5 347,-57.5 434,-57.5 434,-38.5 347,-38.5"/>
<text text-anchor="middle" x="390.5" y="-45.5" font-family="Helvetica,sans-Serif" font-size="10.00">std::vector::size</text>
</a>
</g>
</g>
<!-- Node5&#45;&gt;Node7 -->
<g id="edge6" class="edge">
<title>Node5&#45;&gt;Node7</title>
<path fill="none" stroke="midnightblue" d="M270.62,-19.59C291.6,-24.6 317.48,-30.79 339.73,-36.11"/>
<polygon fill="midnightblue" stroke="midnightblue" points="339.13,-39.56 349.67,-38.48 340.75,-32.75 339.13,-39.56"/>
</g>
<!-- Node8&#45;&gt;Node2 -->
<g id="edge8" class="edge">
<title>Node8&#45;&gt;Node2</title>
<path fill="none" stroke="midnightblue" d="M112.14,-78.56C128.75,-80.91 154.16,-84.5 177,-87.73"/>
<polygon fill="midnightblue" stroke="midnightblue" points="176.54,-91.2 186.94,-89.13 177.52,-84.26 176.54,-91.2"/>
</g>
<!-- Node8&#45;&gt;Node4 -->
<g id="edge9" class="edge">
<title>Node8&#45;&gt;Node4</title>
<path fill="none" stroke="midnightblue" d="M112.14,-73.44C132.56,-70.55 166.26,-65.79 192.15,-62.13"/>
<polygon fill="midnightblue" stroke="midnightblue" points="192.94,-65.56 202.35,-60.69 191.96,-58.63 192.94,-65.56"/>
</g>
<!-- Node8&#45;&gt;Node5 -->
<g id="edge10" class="edge">
<title>Node8&#45;&gt;Node5</title>
<path fill="none" stroke="midnightblue" d="M105.82,-66.22C116.37,-57.86 132.5,-45.95 148,-38 159.53,-32.08 172.6,-26.94 184.79,-22.73"/>
<polygon fill="midnightblue" stroke="midnightblue" points="185.96,-26.03 194.34,-19.56 183.75,-19.39 185.96,-26.03"/>
</g>
</g>
</svg>
